<svg width="360" height="480" viewBox="0 0 360 480" fill="none" xmlns="http://www.w3.org/2000/svg">
  <defs>
    <linearGradient id="bg" x1="0" y1="0" x2="1" y2="1">
      <stop offset="0" stop-color="#11141A" />
      <stop offset="1" stop-color="#2D2A20" />
    </linearGradient>
    <linearGradient id="inner" x1="0" y1="0" x2="1" y2="1">
      <stop offset="0" stop-color="#1A1F2A" />
      <stop offset="1" stop-color="#10131A" />
    </linearGradient>
    <linearGradient id="gold" x1="0" y1="0" x2="1" y2="0">
      <stop offset="0" stop-color="#F5E1B0" />
      <stop offset="1" stop-color="#C08B3D" />
    </linearGradient>
    <radialGradient id="halo" cx="0" cy="0" r="1" gradientUnits="userSpaceOnUse" gradientTransform="translate(190 140) rotate(90) scale(150)">
      <stop offset="0" stop-color="#F5E1B0" stop-opacity="0.45" />
      <stop offset="1" stop-color="#F5E1B0" stop-opacity="0" />
    </radialGradient>
  </defs>
  <rect width="360" height="480" rx="32" fill="url(#bg)" />
  <rect x="26" y="26" width="308" height="428" rx="28" fill="url(#inner)" opacity="0.8" />
  <circle cx="190" cy="160" r="78" fill="url(#halo)" />
  <circle cx="188" cy="190" r="50" fill="#171B24" />
  <path
    d="M18 320C92 280 176 270 250 280C300 288 334 304 360 318"
    stroke="url(#gold)"
    stroke-width="2"
    opacity="0.85"
  />
  <path
    d="M0 360C80 334 170 320 250 324C300 326 336 336 360 344"
    stroke="#F5E1B0"
    stroke-width="1.2"
    opacity="0.5"
  />
  <text
    x="50%"
    y="72%"
    text-anchor="middle"
    fill="#F5E1B0"
    font-size="56"
    font-family="Arial, sans-serif"
    letter-spacing="6"
  >
    MS
  </text>
</svg>
